<svg xmlns="http://www.w3.org/2000/svg" width="280" height="106" viewBox="0 0 280 106" fill="none">
  <path d="M100.279 0.726414C101.412 0.2899 102.577 0.112191 103.729 0.294774C104.893 0.479252 105.873 1.0045 106.662 1.70493C108.158 3.0323 108.995 5.00476 109.504 6.78013C110.544 10.4056 110.651 14.8217 110.616 17.0457V17.0702L110.615 17.0946C110.288 26.3214 107.883 38.2753 103.058 49.0741C98.2798 59.767 90.9588 69.6888 80.5482 74.4227C77.4 84.4474 73.2023 93.5822 66.6839 99.7977L66.6683 99.8133L66.6517 99.828C56.1413 109.495 41.9184 105.709 32.2855 97.6874V97.6864C19.3159 87.267 10.9052 70.5258 6.13995 54.3758V54.3749C2.74973 43.019 0.977218 31.4829 0.436829 22.5926V22.5916C0.106899 17.1044 0.21362 12.595 0.698548 9.36216C0.938066 7.76552 1.29167 6.32799 1.81867 5.20688C2.19185 4.41301 2.91529 3.23636 4.19367 2.72251L4.35675 2.55942L5.24249 2.4686C6.83366 2.30662 8.05297 3.22524 8.7591 3.90024C9.54248 4.64913 10.2874 5.6689 11.0003 6.80161C12.438 9.08593 14.0663 12.3569 15.8939 16.285C18.8223 22.5209 22.3836 30.4541 26.7444 38.3983L26.7562 38.4198L26.7669 38.4403C31.8506 48.1296 39.3425 58.5941 48.3372 65.3084C56.7471 71.5863 66.2464 74.4577 76.4515 70.702C77.181 68.2329 77.8662 65.6802 78.5189 63.0643C81.8906 49.5501 84.4531 34.2502 88.6321 22.1209C89.7237 18.7277 91.1132 14.3551 92.847 10.4686C93.7176 8.51692 94.7045 6.62001 95.8265 4.99009C96.9359 3.37844 98.2707 1.89013 99.887 0.916844L100.075 0.804539L100.279 0.726414Z" fill="#111011"></path>
  <text x="135" y="76" font-family="Crimson Pro, Georgia, serif" font-size="78" font-weight="400" fill="#111011" letter-spacing="-2">vocca</text>
</svg>