<svg width="111" height="106" viewBox="0 0 111 106" fill="none" xmlns="http://www.w3.org/2000/svg">
<path d="M100.279 0.726414C101.412 0.2899 102.577 0.112191 103.729 0.294774C104.893 0.479252 105.873 1.0045 106.662 1.70493C108.158 3.0323 108.995 5.00476 109.504 6.78013C110.544 10.4056 110.651 14.8217 110.616 17.0457V17.0702L110.615 17.0946C110.288 26.3214 107.883 38.2753 103.058 49.0741C98.2798 59.767 90.9588 69.6888 80.5482 74.4227C77.4 84.4474 73.2023 93.5822 66.6839 99.7977L66.6683 99.8133L66.6517 99.828C56.1413 109.495 41.9184 105.709 32.2855 97.6874V97.6864C19.3159 87.267 10.9052 70.5258 6.13995 54.3758V54.3749C2.74973 43.019 0.977218 31.4829 0.436829 22.5926V22.5916C0.106899 17.1044 0.21362 12.595 0.698548 9.36216C0.938066 7.76552 1.29167 6.32799 1.81867 5.20688C2.19185 4.41301 2.91529 3.23636 4.19367 2.72251L4.35675 2.55942L5.24249 2.4686C6.83366 2.30662 8.05297 3.22524 8.7591 3.90024C9.54248 4.64913 10.2874 5.6689 11.0003 6.80161C12.438 9.08593 14.0663 12.3569 15.8939 16.285C18.8223 22.5209 22.3836 30.4541 26.7444 38.3983L26.7562 38.4198L26.7669 38.4403C31.8506 48.1296 39.3425 58.5941 48.3372 65.3084C56.7471 71.5863 66.2464 74.4577 76.4515 70.702C77.181 68.2329 77.8662 65.6802 78.5189 63.0643C81.8906 49.5501 84.4531 34.2502 88.6321 22.1209C89.7237 18.7277 91.1132 14.3551 92.847 10.4686C93.7176 8.51692 94.7045 6.62001 95.8265 4.99009C96.9359 3.37844 98.2707 1.89013 99.887 0.916844L100.075 0.804539L100.279 0.726414ZM5.99835 8.33188C5.87384 8.79714 5.75199 9.38351 5.64386 10.1043C5.23149 12.8535 5.10761 16.9757 5.42706 22.2899L5.53839 23.9207C6.14542 31.9478 7.75224 41.9804 10.6312 51.9247L10.9339 52.953L10.9359 52.9608C15.4944 68.41 23.3387 83.8144 34.8968 93.3651L35.4495 93.8163L35.4671 93.8299L35.4857 93.8456C44.2343 101.13 55.4295 103.328 63.2405 96.1708C68.1896 91.4481 71.749 84.5877 74.5901 76.495C63.7554 79.1515 53.7634 75.5987 45.346 69.3153C35.531 61.9886 27.6132 50.8155 22.3392 40.7635V40.7625C17.8911 32.6544 14.2463 24.539 11.3685 18.411L11.3646 18.4022C9.53619 14.4721 8.02111 11.4559 6.76788 9.46469C6.48204 9.01054 6.22508 8.63646 5.99835 8.33188ZM102.947 5.23325C102.848 5.21765 102.641 5.20819 102.284 5.31919C101.565 5.80243 100.775 6.62077 99.9456 7.82505C99.0584 9.11391 98.2133 10.7125 97.4134 12.5057C95.8084 16.1036 94.4996 20.2104 93.387 23.6688L93.3792 23.6932L93.3704 23.7176C89.2666 35.6144 86.8997 50.1247 83.3694 64.2743C83.0897 65.3955 82.8012 66.5142 82.5052 67.6278C89.3607 63.0744 94.6717 55.5846 98.4925 47.034C103.039 36.8601 105.308 25.5521 105.617 16.9374C105.648 14.8145 105.522 11.0312 104.699 8.15805C104.274 6.67738 103.767 5.82059 103.344 5.44516C103.174 5.29454 103.051 5.24989 102.947 5.23325Z" fill="#0074FA"></path>
</svg>